<svg xmlns="http://www.w3.org/2000/svg" width="29.503" height="29.503" viewBox="0 0 29.503 29.503"><defs><style>.a{fill:#fff;}</style></defs><g transform="translate(0 0)"><path class="a" d="M20.186,33.9a7.6,7.6,0,0,1-.392,1.467l1.593,1.443a9.6,9.6,0,0,1-.771,1.346l-2.045-.659a7.652,7.652,0,0,1-1.078,1.077l.659,2.045a9.653,9.653,0,0,1-1.346.771l-1.443-1.593a7.59,7.59,0,0,1-1.467.392l-.454,2.1c-.257.02-.515.039-.777.039s-.52-.019-.778-.039l-.454-2.1a7.6,7.6,0,0,1-1.467-.392L8.523,41.387a9.6,9.6,0,0,1-1.346-.771l.659-2.045a7.675,7.675,0,0,1-1.077-1.077l-2.045.659a9.653,9.653,0,0,1-.771-1.346l1.593-1.443A7.59,7.59,0,0,1,5.143,33.9l-2.1-.454c-.02-.257-.039-.515-.039-.778s.019-.52.039-.778l2.1-.454a7.6,7.6,0,0,1,.392-1.467L3.943,28.523a9.6,9.6,0,0,1,.771-1.346l2.045.659a7.652,7.652,0,0,1,1.078-1.077l-.659-2.045a9.653,9.653,0,0,1,1.346-.771l1.443,1.593a7.591,7.591,0,0,1,1.467-.392l.454-2.1c.257-.02.515-.039.777-.039s.52.019.778.039l.454,2.1a7.6,7.6,0,0,1,1.467.392l1.443-1.593a9.6,9.6,0,0,1,1.346.771l-.659,2.045a7.652,7.652,0,0,1,1.077,1.078l2.045-.659a9.653,9.653,0,0,1,.771,1.346l-1.593,1.443a7.59,7.59,0,0,1,.392,1.467l2.1.454c.02.257.039.515.039.777s-.019.52-.039.778Zm-7.522-6.319a5.087,5.087,0,1,0,5.087,5.087A5.087,5.087,0,0,0,12.665,27.578Z" transform="translate(-3 -12.827)"/><path class="a" d="M41.491,9.768a4.077,4.077,0,0,1-.311.753l.8,1.539a5.621,5.621,0,0,1-.923.923l-1.539-.8a4.008,4.008,0,0,1-.753.311l-.521,1.658a5.528,5.528,0,0,1-.652.042,5.623,5.623,0,0,1-.652-.041l-.521-1.658a4.042,4.042,0,0,1-.753-.311l-1.539.8a5.621,5.621,0,0,1-.923-.923l.8-1.539a4.008,4.008,0,0,1-.311-.753l-1.658-.521A5.527,5.527,0,0,1,32,8.6a5.623,5.623,0,0,1,.041-.652L33.7,7.423a4.042,4.042,0,0,1,.311-.753l-.8-1.539a5.621,5.621,0,0,1,.923-.923l1.539.8a4.008,4.008,0,0,1,.753-.311l.521-1.658A5.528,5.528,0,0,1,37.6,3a5.623,5.623,0,0,1,.652.041L38.768,4.7a4.042,4.042,0,0,1,.753.311l1.539-.8a5.621,5.621,0,0,1,.923.923l-.8,1.539a4.008,4.008,0,0,1,.311.753l1.658.521a5.527,5.527,0,0,1,.042.652,5.623,5.623,0,0,1-.041.652ZM37.6,6.561A2.035,2.035,0,1,0,39.63,8.6,2.035,2.035,0,0,0,37.6,6.561Z" transform="translate(-17.249 -3)"/><path class="a" d="M51.006,33.53a3.54,3.54,0,0,1-.33.8l.506,1.065a4.614,4.614,0,0,1-.787.787l-1.065-.506a3.531,3.531,0,0,1-.8.33l-.4,1.113a4.181,4.181,0,0,1-1.112,0l-.4-1.113a3.54,3.54,0,0,1-.8-.33l-1.065.506a4.614,4.614,0,0,1-.787-.787l.506-1.065a3.536,3.536,0,0,1-.33-.8l-1.113-.4a4.184,4.184,0,0,1,0-1.112l1.113-.4a3.526,3.526,0,0,1,.33-.8l-.506-1.065a4.614,4.614,0,0,1,.787-.787l1.065.506a3.531,3.531,0,0,1,.8-.33l.4-1.113A4.456,4.456,0,0,1,47.578,28a4.556,4.556,0,0,1,.556.037l.4,1.113a3.54,3.54,0,0,1,.8.33l1.065-.506a4.614,4.614,0,0,1,.787.787l-.506,1.065a3.531,3.531,0,0,1,.33.8l1.113.4a4.181,4.181,0,0,1,0,1.112Zm-3.428-2.478A1.526,1.526,0,1,0,49.1,32.578,1.526,1.526,0,0,0,47.578,31.052Z" transform="translate(-22.653 -15.283)"/></g></svg>