<svg xmlns="http://www.w3.org/2000/svg" width="29.14" height="26.271" viewBox="0 0 29.14 26.271"><defs><style>.a{fill:#0e1426;}</style></defs><g transform="translate(0 -2)"><g transform="translate(0 2)"><path d="M27.6,2H1.54A1.54,1.54,0,0,0,0,3.54v23.19a1.54,1.54,0,0,0,1.54,1.54H27.6a1.54,1.54,0,0,0,1.54-1.54V3.54A1.54,1.54,0,0,0,27.6,2Zm.513,24.731a.513.513,0,0,1-.513.513H1.54a.513.513,0,0,1-.513-.513V7.544H28.113V26.731Zm0-20.213H1.027V3.54a.513.513,0,0,1,.513-.513H27.6a.513.513,0,0,1,.513.513V6.517Z" transform="translate(0 -2)"/><path d="M43.284,34.133h-.309a.309.309,0,0,0,0,.617h.309a.309.309,0,0,0,0-.617Z" transform="translate(-40.1 -31.669)"/><path d="M85.951,34.133h-.308a.309.309,0,0,0,0,.617h.308a.309.309,0,1,0,0-.617Z" transform="translate(-81.224 -31.669)"/><path d="M128.618,34.133h-.309a.309.309,0,0,0,0,.617h.309a.309.309,0,0,0,0-.617Z" transform="translate(-122.349 -31.669)"/><path class="a" d="M44.207,244.261h6.161a1.54,1.54,0,0,0,1.54-1.54v-2.247a1.54,1.54,0,0,0-1.54-1.54H44.207a1.54,1.54,0,0,0-1.54,1.54v2.247A1.54,1.54,0,0,0,44.207,244.261Zm2.054-4.3h4.108a.513.513,0,0,1,.513.513v2.247a.513.513,0,0,1-.513.513H46.261Zm-2.567.513a.513.513,0,0,1,.513-.513h1.027v3.274H44.207a.513.513,0,0,1-.513-.513v-2.247Z" transform="translate(-38.432 -230.294)"/><path class="a" d="M44.207,373.261h6.161a1.54,1.54,0,0,0,1.54-1.54v-2.247a1.54,1.54,0,0,0-1.54-1.54H44.207a1.54,1.54,0,0,0-1.54,1.54v2.247A1.54,1.54,0,0,0,44.207,373.261Zm2.054-4.3h4.108a.513.513,0,0,1,.513.513v2.247a.513.513,0,0,1-.513.513H46.261Zm-2.567.513a.513.513,0,0,1,.513-.513h1.027v3.274H44.207a.513.513,0,0,1-.513-.513v-2.247Z" transform="translate(-38.432 -351.196)"/><path class="a" d="M376.742,259.542a.513.513,0,0,0,.726,0l2.567-2.567a.513.513,0,0,0-.726-.726l-2.2,2.2-.664-.664a.513.513,0,0,0-.726.726Z" transform="translate(-357.141 -246.266)"/><path class="a" d="M376.742,387.542a.513.513,0,0,0,.726,0l2.567-2.567a.513.513,0,0,0-.726-.726l-2.2,2.2-.664-.664a.513.513,0,0,0-.726.726Z" transform="translate(-357.141 -366.334)"/></g></g></svg>